<svg xmlns="http://www.w3.org/2000/svg" version="1.1" xmlns:xlink="http://www.w3.org/1999/xlink" xmlns:svgjs="http://svgjs.dev/svgjs" width="1000" height="1000" viewBox="0 0 1000 1000"><rect width="1000" height="1000" fill="#000000"></rect><g transform="matrix(0.7,0,0,0.7,149.57575757575756,282.1265587044535)"><svg viewBox="0 0 396 247" data-background-color="#000000" preserveAspectRatio="xMidYMid meet" height="623" width="1000" xmlns="http://www.w3.org/2000/svg" xmlns:xlink="http://www.w3.org/1999/xlink"><g id="tight-bounds" transform="matrix(1,0,0,1,0.2400000000000091,-0.09999999999999432)"><svg viewBox="0 0 395.52 247.2" height="247.2" width="395.52"><g><svg></svg></g><g><svg viewBox="0 0 395.52 247.2" height="247.2" width="395.52"><g transform="matrix(1,0,0,1,75.54432,79.42381262624093)"><svg viewBox="0 0 244.43135999999998 88.35237474751813" height="88.35237474751813" width="244.43135999999998"><g><svg viewBox="0 0 415.47496228303396 150.1779459306759" height="88.35237474751813" width="244.43135999999998"><g transform="matrix(1,0,0,1,171.04360228303398,32.761455972856744)"><svg viewBox="0 0 244.43135999999998 84.6550339849624" height="84.6550339849624" width="244.43135999999998"><g id="textblocktransform"><svg viewBox="0 0 244.43135999999998 84.6550339849624" height="84.6550339849624" width="244.43135999999998" id="textblock"><g><svg viewBox="0 0 244.43135999999998 84.6550339849624" height="84.6550339849624" width="244.43135999999998"><g transform="matrix(1,0,0,1,0,0)"><svg width="244.43135999999998" viewBox="2.1 -36.55 106.39 36.849999999999994" height="84.6550339849624" data-palette-color="#fafafa"><path d="M11.75 0.3L11.75 0.3Q8.55 0.3 6.4-0.68 4.25-1.65 3.18-2.88 2.1-4.1 2.1-4.75L2.1-4.75Q2.1-5 2.25-5.25 2.4-5.5 2.6-5.65 2.8-5.8 2.95-5.8L2.95-5.8Q3.3-5.8 3.75-5.15 4.2-4.5 5.05-3.65 5.9-2.8 7.43-2.15 8.95-1.5 11.5-1.5L11.5-1.5Q14.25-1.5 16.1-2.43 17.95-3.35 18.9-5.15 19.85-6.95 19.85-9.6L19.85-9.6Q19.85-12.35 18.93-14 18-15.65 16.5-16.65 15-17.65 13.23-18.28 11.45-18.9 9.65-19.5 7.85-20.1 6.35-21.05 4.85-22 3.93-23.63 3-25.25 3-27.9L3-27.9Q3-30.6 3.95-32.3 4.9-34 6.4-34.93 7.9-35.85 9.6-36.2 11.3-36.55 12.85-36.55L12.85-36.55Q14.4-36.55 15.8-36.3 17.2-36.05 18.32-35.68 19.45-35.3 20.1-34.85 20.75-34.4 20.75-33.95L20.75-33.95Q20.75-33.75 20.63-33.5 20.5-33.25 20.3-33.05 20.1-32.85 19.85-32.85L19.85-32.85Q19.5-32.85 18.7-33.33 17.9-33.8 16.48-34.27 15.05-34.75 12.8-34.75L12.8-34.75Q10.95-34.75 9.1-34.2 7.25-33.65 6.03-32.2 4.8-30.75 4.8-28.05L4.8-28.05Q4.8-25.75 5.73-24.38 6.65-23 8.15-22.2 9.65-21.4 11.43-20.83 13.2-20.25 15-19.55 16.8-18.85 18.3-17.73 19.8-16.6 20.73-14.7 21.65-12.8 21.65-9.75L21.65-9.75Q21.65-6.2 20.38-3.98 19.1-1.75 16.88-0.73 14.65 0.3 11.75 0.3ZM46.9 0L29.1 0Q28.75 0 28.47-0.23 28.2-0.45 28.2-0.9L28.2-0.9 28.2-35.65Q28.2-36.1 28.47-36.33 28.75-36.55 29.1-36.55L29.1-36.55 46.9-36.55Q47.35-36.55 47.55-36.27 47.75-36 47.75-35.7L47.75-35.7Q47.75-35.35 47.52-35.05 47.3-34.75 46.9-34.75L46.9-34.75 30-34.75 30-19.2 38-19.2Q38.4-19.2 38.62-18.93 38.85-18.65 38.85-18.25L38.85-18.25Q38.85-17.95 38.65-17.68 38.45-17.4 38-17.4L38-17.4 30-17.4 30-1.8 46.9-1.8Q47.3-1.8 47.52-1.53 47.75-1.25 47.75-0.85L47.75-0.85Q47.75-0.55 47.55-0.28 47.35 0 46.9 0L46.9 0ZM61.7 0.3L61.7 0.3Q58.95 0.3 56.75-0.73 54.55-1.75 53.25-4 51.95-6.25 51.95-10L51.95-10 51.95-26.25Q51.95-30 53.25-32.25 54.55-34.5 56.75-35.52 58.95-36.55 61.7-36.55L61.7-36.55Q64.8-36.55 66.97-35.45 69.15-34.35 70.32-32.48 71.5-30.6 71.5-28.3L71.5-28.3Q71.5-27.8 71.22-27.55 70.95-27.3 70.6-27.3L70.6-27.3Q70.25-27.3 70-27.53 69.75-27.75 69.7-28.2L69.7-28.2Q69.4-30.45 68.35-31.9 67.3-33.35 65.6-34.05 63.9-34.75 61.7-34.75L61.7-34.75Q57.95-34.75 55.85-32.68 53.75-30.6 53.75-26.25L53.75-26.25 53.75-10Q53.75-5.65 55.85-3.58 57.95-1.5 61.7-1.5L61.7-1.5Q65.45-1.5 67.57-3.58 69.7-5.65 69.7-10L69.7-10 69.7-17.4 61.75-17.4Q61.35-17.4 61.12-17.68 60.9-17.95 60.9-18.3L60.9-18.3Q60.9-18.65 61.12-18.93 61.35-19.2 61.75-19.2L61.75-19.2 70.65-19.2Q71.05-19.2 71.27-18.93 71.5-18.65 71.5-18.25L71.5-18.25 71.5-10Q71.5-6.25 70.2-4 68.9-1.75 66.67-0.73 64.45 0.3 61.7 0.3ZM79.74 0L79.74 0Q79.39 0 79.12-0.23 78.84-0.45 78.84-0.9L78.84-0.9 78.84-35.7Q78.84-36.15 79.12-36.35 79.39-36.55 79.74-36.55L79.74-36.55Q80.09-36.55 80.37-36.35 80.64-36.15 80.64-35.7L80.64-35.7 80.64-0.9Q80.64-0.45 80.37-0.23 80.09 0 79.74 0ZM89.84 0L89.84 0Q89.49 0 89.22-0.23 88.94-0.45 88.94-0.9L88.94-0.9 88.94-35.7Q88.94-36.2 89.22-36.38 89.49-36.55 89.84-36.55L89.84-36.55Q90.19-36.55 90.49-36.2 90.79-35.85 91.04-35.43 91.29-35 91.39-34.75L91.39-34.75 106.69-4.45 106.69-35.7Q106.69-36.15 106.97-36.35 107.24-36.55 107.59-36.55L107.59-36.55Q107.94-36.55 108.22-36.35 108.49-36.15 108.49-35.7L108.49-35.7 108.49-0.9Q108.49-0.45 108.22-0.23 107.94 0 107.59 0L107.59 0Q107.09 0 106.74-0.65 106.39-1.3 106.14-1.8L106.14-1.8 90.74-32.15 90.74-0.9Q90.74-0.45 90.47-0.23 90.19 0 89.84 0Z" opacity="1" transform="matrix(1,0,0,1,0,0)" fill="#fafafa" class="wordmark-text-0" data-fill-palette-color="primary" id="text-0"></path></svg></g></svg></g></svg></g></svg></g><g><svg viewBox="0 0 151.05858048 150.1779459306759" height="150.1779459306759" width="151.05858048"><g><svg xmlns="http://www.w3.org/2000/svg" viewBox="20 20.173631984616488 60.018743579525974 59.668848995350714" x="0" y="0" height="150.1779459306759" width="151.05858048" class="icon-icon-0" data-fill-palette-color="accent" id="icon-0"><g data-name="Calque 2" fill="#5ebc67" data-fill-palette-color="accent"><path d="M23.82 23.07A1.82 1.82 0 1 1 22 24.88 1.82 1.82 0 0 1 23.82 23.07Zm0 5.58a3.73 3.73 0 0 0 2-0.56c2.07 1.44 9.08 6.45 10.21 7.14a6.25 6.25 0 0 0 3.19 1.25c0.63 0 2 0.06 4.13 0.06A2.75 2.75 0 0 0 45.8 38a2.76 2.76 0 1 0-2.69-3.32c-1.94 0-3.26 0-3.82-0.06A3.81 3.81 0 0 1 37 33.71c-1-0.63-7.64-5.39-9.9-7A4 4 0 0 0 27.57 25a3.7 3.7 0 0 0-3.7-3.7 3.74 3.74 0 0 0-3.7 3.7A3.6 3.6 0 0 0 23.82 28.64Z" fill="#5ebc67" data-fill-palette-color="accent"></path><path d="M22.13 44.61a1.82 1.82 0 1 1 1.82 1.82A1.78 1.78 0 0 1 22.13 44.61Zm5.39 0.94H33a2.71 2.71 0 0 0 2.57 1.82 2.76 2.76 0 0 0 0-5.51A2.71 2.71 0 0 0 33 43.67H27.52a3.76 3.76 0 0 0-3.57-2.76 3.7 3.7 0 0 0-3.7 3.7 3.74 3.74 0 0 0 3.7 3.7A3.52 3.52 0 0 0 27.52 45.55Z" fill="#5ebc67" data-fill-palette-color="accent"></path><path d="M28.33 49.87a1.82 1.82 0 1 1-1.82 1.82A1.82 1.82 0 0 1 28.33 49.87Zm0 5.58a3.7 3.7 0 0 0 3.57-2.76H33a2.72 2.72 0 0 0 2.57 1.82 2.76 2.76 0 0 0 0-5.51A2.71 2.71 0 0 0 33 50.81H31.9a3.76 3.76 0 0 0-3.57-2.76 3.7 3.7 0 0 0 0 7.39Z" fill="#5ebc67" data-fill-palette-color="accent"></path><path d="M23.7 75.24a1.82 1.82 0 1 1 1.82-1.82A1.78 1.78 0 0 1 23.7 75.24Zm1.06-5.39V63.4c0-2.94 1-3.57 2.69-3.57 2.07 0 4.38 0 5.39 0.06a2.73 2.73 0 0 0 2.63 1.82 2.76 2.76 0 1 0 0-5.51A2.71 2.71 0 0 0 32.9 58c-1.06 0-3.38-0.06-5.39-0.06-4.64 0-4.64 4.07-4.64 5.45v6.39A3.76 3.76 0 0 0 20 73.42a3.7 3.7 0 0 0 3.7 3.7 3.74 3.74 0 0 0 3.7-3.7A3.58 3.58 0 0 0 24.76 69.86Z" fill="#5ebc67" data-fill-palette-color="accent"></path><path d="M75.06 75.24a1.82 1.82 0 1 1 1.82-1.82A1.82 1.82 0 0 1 75.06 75.24Zm0.81-5.45V63.4c0-1.31 0-5.45-4.57-5.45-2.07 0-4.38 0-5.39 0.06a2.71 2.71 0 0 0-2.57-1.82 2.76 2.76 0 1 0 0 5.51A2.85 2.85 0 0 0 66 59.9c1.06 0 3.38-0.06 5.39-0.06C73 59.83 74 60.4 74 63.4v6.45a3.7 3.7 0 0 0 1 7.26 3.71 3.71 0 0 0 0.82-7.33Z" fill="#5ebc67" data-fill-palette-color="accent"></path><path d="M72.42 23.69A1.57 1.57 0 1 1 74 25.26 1.59 1.59 0 0 1 72.42 23.69ZM63.59 47.37A2.76 2.76 0 0 0 66 45.86h4.57c4.26 0 4.26-3.76 4.26-5V27a3.46 3.46 0 1 0-4.26-3.38A3.44 3.44 0 0 0 73.05 27v13.9c0 2.63-0.82 3.13-2.38 3.13H66.35a2.75 2.75 0 0 0-5.45 0.56A2.63 2.63 0 0 0 63.59 47.37Z" fill="#5ebc67" data-fill-palette-color="accent"></path><path d="M76.37 50.13a1.82 1.82 0 1 1-1.82 1.82A1.78 1.78 0 0 1 76.37 50.13Zm-13 4.57A2.71 2.71 0 0 0 66 52.88h6.77a3.76 3.76 0 0 0 3.57 2.76A3.7 3.7 0 1 0 72.74 51H66a2.71 2.71 0 0 0-2.57-1.82 2.78 2.78 0 0 0-2.76 2.76A2.73 2.73 0 0 0 63.4 54.7Z" fill="#5ebc67" data-fill-palette-color="accent"></path><rect x="40.48" y="39.98" width="18.04" height="23.93" rx="3.95" ry="3.95" fill="#5ebc67" data-fill-palette-color="accent"></rect><path d="M40.48 24.45a1.82 1.82 0 1 1-1.82 1.82A1.86 1.86 0 0 1 40.48 24.45Zm0 5.58A3.7 3.7 0 0 0 44 27.33h6.26c0.69 0 1.31 0 1.57 0.25s0.31 0.44 0.31 1.25c0 1.13 0 2.63-0.06 3.82a2.76 2.76 0 1 0 3.76 2.57 2.76 2.76 0 0 0-1.94-2.63c0-1.19 0.06-2.63 0.06-3.76a3.32 3.32 0 0 0-0.82-2.57 3.69 3.69 0 0 0-2.88-0.75h-6.2A3.71 3.71 0 1 0 40.48 30Z" fill="#5ebc67" data-fill-palette-color="accent"></path><path d="M35 76.18a1.82 1.82 0 1 1-1.82-1.82A1.78 1.78 0 0 1 35 76.18ZM45.8 66A2.71 2.71 0 0 0 43.3 67.6h-7c-1.31 0-4.07 0-4.07 3.7v1.25a3.68 3.68 0 0 0 0.88 7.27 3.74 3.74 0 0 0 3.7-3.7 3.7 3.7 0 0 0-2.69-3.57c0-0.37-0.06-0.82-0.06-1.25 0-1.69 0.56-1.82 2.19-1.82h6.83a2.69 2.69 0 0 0 2.63 2 2.78 2.78 0 0 0 2.76-2.76A2.69 2.69 0 0 0 45.8 66Z" fill="#5ebc67" data-fill-palette-color="accent"></path><path d="M62.71 78a1.82 1.82 0 0 1-1.82-1.82 1.87 1.87 0 0 1 1.82-1.88 1.82 1.82 0 0 1 1.82 1.82A1.87 1.87 0 0 1 62.71 78Zm0.88-5.45V71.29c0-3.7-2.76-3.7-4.07-3.7H55.7A2.67 2.67 0 0 0 53.2 66a2.76 2.76 0 1 0 2.63 3.51h3.7c1.63 0 2.19 0.12 2.19 1.82a8.09 8.09 0 0 1-0.06 1.25 3.7 3.7 0 1 0 4.7 3.57A3.57 3.57 0 0 0 63.59 72.55Z" fill="#5ebc67" data-fill-palette-color="accent"></path></g></svg></g></svg></g></svg></g></svg></g><path d="M222.93 73.424L222.93 12.862 1.454 12.862 1.454 234.338 222.93 234.338 222.93 173.776 218.438 173.776 218.438 229.846 5.946 229.846 5.946 17.354 218.438 17.354 218.438 73.424Z" fill="#fafafa" stroke="transparent" data-fill-palette-color="primary"></path></svg></g><defs></defs></svg><rect width="395.52" height="247.2" fill="none" stroke="none" visibility="hidden"></rect></g></svg></g></svg>